<svg xmlns="http://www.w3.org/2000/svg" viewBox="0 0 729.2 508.36"><defs><style>.cls-1{fill:#fff;fill-rule:evenodd;}</style></defs><g id="レイヤー_2" data-name="レイヤー 2"><g id="レイヤー_1-2" data-name="レイヤー 1"><path class="cls-1" d="M139.54,271.57,21.48,508.36,0,497.65,234.19,27.94,244.48,7.3l3-7.3,3.24,7.3L261,27.94,247.6,54.83,152,246.57H343.2L247.6,54.83,261,27.94,364.6,235.71l-5.41,10.86,5.41-10.86L468.19,27.94,481.6,54.83,386,246.57H577.2L481.6,54.83,468.19,27.94,478.48,7.3,481.6.1l3.12,7.2L729.2,497.65l-21.48,10.71L589.66,271.57H382.48L495.2,497.65l-21.48,10.71L364.6,289.5,255.48,508.36,234,497.65,346.72,271.57Z"/></g></g></svg>